<svg xmlns="http://www.w3.org/2000/svg" viewBox="0 0 1024 1024" role="img" aria-labelledby="title desc">
  <title id="title">Just.Train logo</title>
  <desc id="desc">A blue rounded-square training logo with a JT monogram and barbell mark.</desc>
  <defs>
    <linearGradient id="bg" x1="124" y1="90" x2="900" y2="934" gradientUnits="userSpaceOnUse">
      <stop offset="0" stop-color="#171923"/>
      <stop offset="0.48" stop-color="#075184"/>
      <stop offset="1" stop-color="#0aa7f2"/>
    </linearGradient>
    <linearGradient id="shine" x1="233" y1="224" x2="806" y2="767" gradientUnits="userSpaceOnUse">
      <stop offset="0" stop-color="#ffffff" stop-opacity="0.92"/>
      <stop offset="1" stop-color="#74d8dd" stop-opacity="0.94"/>
    </linearGradient>
    <filter id="softShadow" x="-20%" y="-20%" width="140%" height="140%">
      <feDropShadow dx="0" dy="28" stdDeviation="36" flood-color="#080812" flood-opacity="0.32"/>
    </filter>
  </defs>
  <rect width="1024" height="1024" rx="224" fill="url(#bg)"/>
  <circle cx="760" cy="208" r="210" fill="#ffffff" opacity="0.08"/>
  <circle cx="236" cy="820" r="250" fill="#74d8dd" opacity="0.1"/>
  <g filter="url(#softShadow)">
    <rect x="214" y="268" width="596" height="58" rx="29" fill="#ffffff" opacity="0.94"/>
    <rect x="158" y="238" width="48" height="118" rx="24" fill="#74d8dd"/>
    <rect x="818" y="238" width="48" height="118" rx="24" fill="#74d8dd"/>
    <rect x="118" y="258" width="36" height="78" rx="18" fill="#ffffff" opacity="0.86"/>
    <rect x="870" y="258" width="36" height="78" rx="18" fill="#ffffff" opacity="0.86"/>
    <path fill="url(#shine)" d="M336 390h108v244c0 79-56 132-139 132-53 0-98-19-132-56l64-76c19 20 40 30 62 30 24 0 37-15 37-43V390Z"/>
    <path fill="#ffffff" d="M512 390h330v96H730v280H622V486H512V390Z"/>
    <path fill="#74d8dd" d="M456 704h108l-36 88H420l36-88Z" opacity="0.95"/>
  </g>
</svg>
